<svg width="1250" height="372" viewBox="0 0 1250 372" fill="none" xmlns="http://www.w3.org/2000/svg">
<g opacity="0.1">
<path d="M1265.9 158.044C1249.1 158.455 1249.13 126.151 1213.63 96.7051C1174.16 63.9813 1138.07 74.132 1130.49 51.5224C1123.32 30.1945 1147.83 -3.2473 1176.44 -13.8242C1224.6 -31.6022 1291.84 12.6425 1302.87 66.9988C1311.44 109.112 1286.33 157.525 1265.9 158.044Z" fill="#09FEB5"/>
<path d="M-16.6777 158.044C0.116027 158.455 0.0910468 126.152 35.5904 96.7054C75.0602 63.9816 111.15 74.1323 118.733 51.5226C125.896 30.1948 101.388 -3.24705 72.7762 -13.824C24.6166 -31.602 -42.6214 12.6428 -53.654 66.9991C-62.2161 109.112 -37.1053 157.526 -16.6777 158.044Z" fill="#09FEB5"/>
<path d="M1265.9 213.446C1249.1 213.035 1249.13 245.339 1213.63 274.785C1174.16 307.509 1138.07 297.358 1130.48 319.968C1123.32 341.295 1147.83 374.737 1176.44 385.314C1224.6 403.092 1291.84 358.847 1302.87 304.491C1311.43 262.378 1286.32 213.965 1265.9 213.446Z" fill="#09FEB5"/>
<path d="M-16.6777 213.446C0.116027 213.035 0.0910468 245.339 35.5904 274.785C75.0602 307.509 111.15 297.358 118.733 319.968C125.896 341.295 101.388 374.737 72.7762 385.314C24.6166 403.092 -42.6214 358.847 -53.654 304.491C-62.2161 262.378 -37.1053 213.965 -16.6777 213.446Z" fill="#09FEB5"/>
</g>
</svg>
