<svg width="1916" height="700" viewBox="0 0 1916 700" fill="none" xmlns="http://www.w3.org/2000/svg">
<g opacity="0.2">
<path d="M1331.91 225.787C1300.98 226.544 1301.02 167.039 1235.63 112.796C1162.93 52.5162 1096.45 71.2147 1082.48 29.5657C1069.28 -9.72202 1114.43 -71.3247 1167.13 -90.8084C1255.85 -123.557 1379.7 -42.0543 1400.03 58.0747C1415.8 135.65 1369.54 224.832 1331.91 225.787Z" fill="#09FEB5"/>
<path d="M-5.70041 423.787C25.235 424.544 25.189 365.039 90.5819 310.796C163.289 250.516 229.769 269.215 243.738 227.566C256.932 188.278 211.786 126.675 159.081 107.192C70.3673 74.4431 -53.491 155.946 -73.814 256.075C-89.5862 333.65 -43.3299 422.832 -5.70041 423.787Z" fill="#09FEB5"/>
<path d="M1941.91 269.731C1910.98 268.974 1911.02 328.479 1845.63 382.722C1772.93 443.002 1706.45 424.303 1692.48 465.952C1679.28 505.24 1724.43 566.843 1777.13 586.326C1865.85 619.075 1989.7 537.572 2010.03 437.443C2025.8 359.868 1979.54 270.686 1941.91 269.731Z" fill="#09FEB5"/>
<path d="M608.3 533.731C639.235 532.974 639.189 592.479 704.582 646.722C777.289 707.002 843.769 688.303 857.738 729.952C870.932 769.24 825.786 830.843 773.081 850.326C684.367 883.075 560.509 801.572 540.186 701.443C524.414 623.868 570.67 534.685 608.3 533.731Z" fill="#09FEB5"/>
</g>
</svg>
